<svg width="355" height="160" viewBox="0 0 355 160" fill="none" xmlns="http://www.w3.org/2000/svg">
<g clip-path="url(#clip0_476_8507)">
<path d="M0 108.777L44.9077 41.9023H9.62292V28.2501H71.852L27.4795 95.018H71.7453V108.777H0Z" fill="#284D94"/>
<path d="M66.1186 136.188L85.899 101.417L62.6968 54.3809H78.2005L93.063 88.1919L109.101 54.3809H124.605L81.5149 136.188H66.1186Z" fill="#284D94"/>
<path d="M135.828 108.883V65.4736H124.8L130.51 54.4873H135.828V36.0359H149.835V54.4873H163.307V65.4736H149.835V108.883H135.828Z" fill="#284D94"/>
<path d="M217.324 103.764C214.437 106.217 206.097 110.483 193.908 110.483C175.838 110.483 163.649 99.2839 163.649 81.7917C163.649 65.1535 175.838 52.7813 192.839 52.7813C210.588 52.7813 219.355 66.2198 219.355 81.5787V86.9118H177.763C179.259 97.0441 188.455 99.3904 197.009 99.3904C205.349 99.3904 211.229 95.9777 213.261 94.0573L217.324 103.764ZM205.349 76.4593C205.241 69.5267 200.537 63.6605 192.945 63.6605C184.927 63.6605 179.367 68.4597 177.763 76.4593H205.349Z" fill="#284D94"/>
<path d="M225.048 108.883V54.3809H238.948V63.0202C240.231 60.2471 244.508 52.8879 250.923 52.8879C255.842 52.8879 258.515 54.2744 260.76 55.5544L255.949 68.6734C254.238 67.4999 251.886 65.9004 248.464 65.9004C242.263 65.9004 238.948 73.3661 238.948 78.8057V108.883H225.048Z" fill="#284D94"/>
<g clip-path="url(#clip1_476_8507)">
<path d="M322.983 33.3653C306.594 33.3653 283.793 29.6513 258.248 14.7568C254.477 12.5578 253.199 7.71227 255.394 3.93421C257.59 0.157653 262.425 -1.12387 266.199 1.0759C309.398 26.2635 342.521 15.2662 343.911 14.787C348.022 13.3617 352.526 15.5313 353.965 19.6411C355.405 23.7515 353.277 28.2484 349.181 29.7108C348.375 29.9984 338.585 33.3653 322.983 33.3653Z" fill="url(#paint0_linear_476_8507)"/>
<path d="M290.427 96.6934C290.366 96.6934 290.305 96.6928 290.243 96.6915C285.88 96.5913 282.424 92.9684 282.524 88.5979C283.668 38.5419 258.051 14.8058 256.96 13.8195C253.731 10.9017 253.448 5.90542 256.345 2.65677C259.242 -0.593416 264.199 -0.898729 267.458 1.98819C268.773 3.153 299.643 31.1796 298.323 88.9594C298.225 93.2682 294.707 96.6934 290.427 96.6934Z" fill="url(#paint1_linear_476_8507)"/>
<path d="M290.602 96.6773C290.029 96.6773 289.447 96.6137 288.865 96.4827C284.62 95.524 281.944 91.3263 282.883 87.0715C283.265 85.3383 292.815 44.2947 342.565 15.4078C346.343 13.2158 351.177 14.5042 353.364 18.2862C355.553 22.0674 354.266 26.9106 350.491 29.1027C327.792 42.2819 314.827 58.2485 307.947 69.3213C300.463 81.366 298.327 90.4286 298.306 90.5191C297.465 94.1832 294.206 96.6773 290.602 96.6773Z" fill="url(#paint2_linear_476_8507)"/>
<path opacity="0.9" d="M256.345 2.65673C258.535 0.199114 261.903 -0.571465 264.825 0.445325C261.32 -0.782955 257.331 0.603042 255.394 3.93428C253.468 7.25003 254.217 11.387 256.979 13.8365C256.973 13.8315 256.965 13.8237 256.96 13.8195C253.731 10.9017 253.448 5.90539 256.345 2.65673Z" fill="url(#paint3_linear_476_8507)"/>
<path opacity="0.9" d="M264.825 0.445282C265.289 0.608472 265.746 0.814425 266.188 1.07147C265.75 0.815763 265.293 0.608472 264.825 0.445282Z" fill="url(#paint4_linear_476_8507)"/>
<path opacity="0.9" d="M285.357 27.0958C277.224 10.8327 268.158 2.60796 267.458 1.98823C267.058 1.63393 266.632 1.329 266.188 1.07041C265.746 0.813844 265.289 0.608274 264.825 0.445388C261.903 -0.571401 258.535 0.199177 256.345 2.6568C253.448 5.90545 253.731 10.9017 256.96 13.8196C256.964 13.8237 256.973 13.8316 256.979 13.8366C257.363 14.1781 257.786 14.4879 258.248 14.757C267.725 20.2825 276.822 24.2665 285.357 27.0958Z" fill="url(#paint5_linear_476_8507)"/>
<path opacity="0.9" d="M285.357 27.0958C277.224 10.8327 268.158 2.60796 267.458 1.98823C267.058 1.63393 266.632 1.329 266.188 1.07041C265.746 0.813844 265.289 0.608274 264.825 0.445388C261.903 -0.571401 258.535 0.199177 256.345 2.6568C253.448 5.90545 253.731 10.9017 256.96 13.8196C256.964 13.8237 256.973 13.8316 256.979 13.8366C257.363 14.1781 257.786 14.4879 258.248 14.757C267.725 20.2825 276.822 24.2665 285.357 27.0958Z" fill="url(#paint6_linear_476_8507)"/>
<path opacity="0.9" d="M353.965 19.641C354.944 22.4366 354.27 25.4087 352.452 27.4856C354.637 25.0024 355.112 21.3072 353.364 18.2862C351.437 14.9548 347.458 13.5615 343.955 14.7743C348.054 13.3792 352.531 15.5458 353.965 19.641Z" fill="url(#paint7_linear_476_8507)"/>
<path opacity="0.9" d="M352.452 27.4856C354.27 25.4087 354.944 22.4366 353.965 19.641C352.531 15.5458 348.054 13.3792 343.955 14.7743C343.481 14.9383 343.015 15.1467 342.565 15.4078C332.899 21.0204 324.756 27.0924 317.897 33.2454C319.653 33.3264 321.351 33.3653 322.982 33.3653C338.585 33.3653 348.374 29.9984 349.181 29.7108C349.662 29.5391 350.113 29.3222 350.537 29.0723C350.693 28.9801 350.842 28.8795 350.989 28.7784C351.061 28.7294 351.135 28.6839 351.205 28.6328C351.332 28.5396 351.45 28.4385 351.57 28.3389C351.655 28.268 351.743 28.2008 351.825 28.1267C351.904 28.0555 351.975 27.9784 352.051 27.9044C352.165 27.7923 352.281 27.6821 352.387 27.5638C352.41 27.5385 352.43 27.5111 352.452 27.4856Z" fill="url(#paint8_linear_476_8507)"/>
<path opacity="0.9" d="M352.452 27.4856C354.27 25.4087 354.944 22.4366 353.965 19.641C352.531 15.5458 348.054 13.3792 343.955 14.7743C343.481 14.9383 343.015 15.1467 342.565 15.4078C332.899 21.0204 324.756 27.0924 317.897 33.2454C319.653 33.3264 321.351 33.3653 322.982 33.3653C338.585 33.3653 348.374 29.9984 349.181 29.7108C349.662 29.5391 350.113 29.3222 350.537 29.0723C350.693 28.9801 350.842 28.8795 350.989 28.7784C351.061 28.7294 351.135 28.6839 351.205 28.6328C351.332 28.5396 351.45 28.4385 351.57 28.3389C351.655 28.268 351.743 28.2008 351.825 28.1267C351.904 28.0555 351.975 27.9784 352.051 27.9044C352.165 27.7923 352.281 27.6821 352.387 27.5638C352.41 27.5385 352.43 27.5111 352.452 27.4856Z" fill="url(#paint9_linear_476_8507)"/>
<path opacity="0.9" d="M298.323 88.9593C298.579 77.7731 297.624 67.7071 295.915 58.7303C285.878 74.1291 283.086 86.1505 282.883 87.0714C281.944 91.3263 284.62 95.524 288.865 96.4827C289.447 96.6137 290.029 96.6773 290.602 96.6773C290.819 96.6773 291.035 96.6672 291.249 96.6495C295.149 96.244 298.232 92.9887 298.323 88.9593Z" fill="url(#paint10_linear_476_8507)"/>
<path opacity="0.9" d="M298.323 88.9593C298.579 77.7731 297.624 67.7071 295.915 58.7303C285.878 74.1291 283.086 86.1505 282.883 87.0714C281.944 91.3263 284.62 95.524 288.865 96.4827C289.447 96.6137 290.029 96.6773 290.602 96.6773C290.819 96.6773 291.035 96.6672 291.249 96.6495C295.149 96.244 298.232 92.9887 298.323 88.9593Z" fill="url(#paint11_linear_476_8507)"/>
</g>
<path d="M136.461 115.888H104.132L102.062 119.899H116.75V158.906H121.343V119.899H136.461V115.888Z" fill="#2EAED2"/>
<path d="M144.02 130.258C142.977 130.602 142.063 131.058 141.277 131.625C140.489 132.193 139.82 132.831 139.267 133.539C138.714 134.248 138.289 134.988 137.992 135.757H137.864V130.471H133.718C133.759 132.536 133.813 134.218 133.877 135.514C133.941 136.81 133.973 138.086 133.973 139.341V158.906H138.183V142.866C138.183 141.893 138.364 140.881 138.725 139.828C139.086 138.775 139.65 137.792 140.416 136.881C141.181 135.97 142.138 135.22 143.286 134.633C144.434 134.046 145.816 133.751 147.432 133.751C148.495 133.751 149.303 133.853 149.856 134.055L150.686 130.106C149.793 129.863 148.75 129.741 147.56 129.741C146.241 129.741 145.061 129.914 144.02 130.258Z" fill="#2EAED2"/>
<path d="M180.282 152.648V130.471H176.072V145.053C176.072 147.646 175.647 149.671 174.796 151.129C173.945 152.587 172.978 153.681 171.894 154.41C170.809 155.139 169.778 155.585 168.8 155.747C167.821 155.909 167.226 155.99 167.014 155.99C165.44 155.99 164.132 155.777 163.091 155.352C162.048 154.927 161.219 154.299 160.603 153.469C159.986 152.639 159.551 151.615 159.295 150.4C159.04 149.185 158.913 147.787 158.913 146.208V130.471H154.703V148.517C154.703 152.082 155.616 154.826 157.445 156.749C159.273 158.674 162.102 159.636 165.929 159.636C166.907 159.636 167.896 159.503 168.896 159.24C169.894 158.976 170.841 158.613 171.734 158.147C172.628 157.682 173.435 157.124 174.158 156.476C174.881 155.828 175.476 155.119 175.945 154.349H176.072C176.072 155.119 176.082 155.879 176.104 156.628C176.125 157.378 176.178 158.137 176.263 158.906H180.601C180.515 157.853 180.442 156.74 180.378 155.565C180.314 154.39 180.282 153.418 180.282 152.648Z" fill="#2EAED2"/>
<path d="M218.525 152.678C217.525 153.509 216.461 154.167 215.335 154.653C214.208 155.139 213.059 155.484 211.89 155.686C210.72 155.889 209.54 155.99 208.35 155.99C205.458 155.99 202.864 155.484 200.568 154.471C198.271 153.459 196.326 152.101 194.731 150.4C193.137 148.698 191.913 146.724 191.063 144.476C190.212 142.228 189.788 139.868 189.788 137.397C189.788 134.927 190.212 132.567 191.063 130.319C191.913 128.071 193.137 126.096 194.731 124.394C196.326 122.693 198.271 121.337 200.568 120.324C202.864 119.311 205.458 118.805 208.35 118.805C209.54 118.805 210.732 118.967 211.922 119.291C213.112 119.615 214.229 120.041 215.271 120.567C216.313 121.094 217.238 121.701 218.046 122.389C218.853 123.079 219.492 123.767 219.96 124.455L223.979 121.599C221.979 119.169 219.577 117.428 216.771 116.374C213.963 115.322 211.157 114.794 208.35 114.794C204.99 114.794 201.876 115.362 199.005 116.496C196.135 117.63 193.646 119.199 191.542 121.205C189.437 123.21 187.788 125.59 186.598 128.344C185.407 131.099 184.812 134.116 184.812 137.397C184.812 140.678 185.407 143.696 186.598 146.45C187.788 149.206 189.437 151.585 191.542 153.59C193.646 155.595 196.135 157.165 199.005 158.299C201.876 159.432 204.99 160 208.35 160C210.221 160 211.996 159.797 213.677 159.392C215.356 158.987 216.919 158.43 218.365 157.721C219.811 157.013 221.097 156.172 222.224 155.2C223.351 154.228 224.297 153.195 225.063 152.101L221.299 149.549C220.448 150.805 219.523 151.849 218.525 152.678Z" fill="#2EAED2"/>
<path d="M254.597 152.527V139.828C254.597 138.086 254.299 136.588 253.704 135.331C253.109 134.076 252.322 133.033 251.344 132.202C250.365 131.372 249.207 130.754 247.868 130.349C246.528 129.945 245.135 129.741 243.689 129.741C238.076 129.741 233.866 131.119 231.059 133.873L233.611 136.729C236.204 134.502 239.245 133.387 242.733 133.387C247.836 133.387 250.387 135.838 250.387 140.739V141.468H248.282C246.496 141.468 244.528 141.55 242.382 141.711C240.234 141.873 238.213 142.279 236.322 142.927C234.429 143.575 232.855 144.557 231.601 145.873C230.347 147.19 229.72 149.002 229.72 151.311C229.72 152.689 230.006 153.894 230.58 154.927C231.155 155.959 231.92 156.831 232.877 157.539C233.834 158.248 234.928 158.775 236.162 159.119C237.395 159.463 238.671 159.636 239.99 159.636C242.413 159.636 244.465 159.22 246.145 158.39C247.825 157.56 249.281 156.193 250.515 154.289H250.643C250.643 155.058 250.674 155.848 250.738 156.658C250.802 157.469 250.898 158.218 251.025 158.906H255.108C254.98 158.137 254.862 157.155 254.757 155.959C254.65 154.765 254.597 153.62 254.597 152.527ZM250.387 146.815C250.387 148.071 250.206 149.256 249.845 150.369C249.483 151.484 248.92 152.456 248.155 153.286C247.389 154.116 246.443 154.775 245.316 155.26C244.189 155.747 242.86 155.99 241.329 155.99C240.478 155.99 239.639 155.899 238.81 155.716C237.98 155.534 237.225 155.23 236.545 154.805C235.864 154.38 235.322 153.833 234.919 153.164C234.514 152.496 234.312 151.697 234.312 150.764C234.312 149.347 234.833 148.233 235.875 147.423C236.917 146.613 238.171 146.016 239.639 145.63C241.106 145.246 242.637 145.003 244.232 144.901C245.827 144.801 247.155 144.749 248.219 144.749H250.387V146.815Z" fill="#2EAED2"/>
<path d="M271.022 130.258C269.98 130.602 269.066 131.058 268.279 131.625C267.492 132.193 266.822 132.831 266.27 133.539C265.717 134.248 265.291 134.988 264.994 135.757H264.866V130.471H260.72C260.762 132.536 260.816 134.218 260.88 135.514C260.943 136.81 260.975 138.086 260.975 139.341V158.906H265.185V142.866C265.185 141.893 265.366 140.881 265.728 139.828C266.089 138.775 266.653 137.792 267.418 136.881C268.183 135.97 269.14 135.22 270.289 134.633C271.437 134.046 272.818 133.751 274.435 133.751C275.497 133.751 276.306 133.853 276.859 134.055L277.688 130.106C276.795 129.863 275.753 129.741 274.563 129.741C273.244 129.741 272.064 129.914 271.022 130.258Z" fill="#2EAED2"/>
<path d="M307.094 143.959C307.094 142.015 306.776 140.183 306.137 138.46C305.5 136.739 304.575 135.24 303.363 133.964C302.151 132.688 300.652 131.666 298.866 130.896C297.079 130.127 295.059 129.741 292.806 129.741C290.679 129.741 288.701 130.116 286.873 130.866C285.044 131.615 283.449 132.658 282.089 133.994C280.727 135.331 279.665 136.911 278.9 138.734C278.134 140.556 277.751 142.542 277.751 144.688C277.751 146.836 278.144 148.82 278.931 150.643C279.718 152.465 280.791 154.045 282.152 155.382C283.513 156.719 285.14 157.762 287.033 158.511C288.925 159.26 290.977 159.636 293.188 159.636C295.654 159.636 297.962 159.169 300.11 158.238C302.257 157.307 304.224 155.768 306.01 153.62L302.757 151.068C301.906 152.365 300.662 153.509 299.025 154.501C297.388 155.494 295.442 155.99 293.188 155.99C291.699 155.99 290.318 155.727 289.042 155.2C287.766 154.674 286.639 153.954 285.661 153.043C284.683 152.132 283.896 151.048 283.301 149.792C282.705 148.537 282.344 147.201 282.217 145.782H307.094L307.094 143.959ZM282.344 142.501C282.344 141.327 282.631 140.192 283.205 139.098C283.779 138.005 284.545 137.033 285.502 136.182C286.459 135.331 287.575 134.654 288.851 134.146C290.127 133.641 291.444 133.387 292.806 133.387C295.868 133.387 298.248 134.228 299.95 135.908C301.65 137.59 302.502 139.788 302.502 142.501L282.344 142.501Z" fill="#2EAED2"/>
</g>
<defs>
<linearGradient id="paint0_linear_476_8507" x1="254.32" y1="16.6826" x2="354.415" y2="16.6826" gradientUnits="userSpaceOnUse">
<stop stop-color="#4AC8EC"/>
<stop offset="1" stop-color="#0A7AB3"/>
</linearGradient>
<linearGradient id="paint1_linear_476_8507" x1="261.58" y1="6.00379" x2="295.153" y2="85.0918" gradientUnits="userSpaceOnUse">
<stop offset="0.11563" stop-color="#0B78B3"/>
<stop offset="1" stop-color="#40B9E2"/>
</linearGradient>
<linearGradient id="paint2_linear_476_8507" x1="286.621" y1="85.0641" x2="347.486" y2="20.4447" gradientUnits="userSpaceOnUse">
<stop offset="0.16896" stop-color="#C6509E"/>
<stop offset="1" stop-color="#2269A9"/>
</linearGradient>
<linearGradient id="paint3_linear_476_8507" x1="254.321" y1="6.91996" x2="354.416" y2="6.91996" gradientUnits="userSpaceOnUse">
<stop stop-color="#3288A0"/>
<stop offset="1" stop-color="#024D75"/>
</linearGradient>
<linearGradient id="paint4_linear_476_8507" x1="266.798" y1="3.79508" x2="300.477" y2="82.9854" gradientUnits="userSpaceOnUse">
<stop offset="0.11563" stop-color="#024262"/>
<stop offset="1" stop-color="#3288A0"/>
</linearGradient>
<linearGradient id="paint5_linear_476_8507" x1="254.343" y1="13.5525" x2="354.438" y2="13.5525" gradientUnits="userSpaceOnUse">
<stop stop-color="#3288A0"/>
<stop offset="1" stop-color="#024D75"/>
</linearGradient>
<linearGradient id="paint6_linear_476_8507" x1="264.138" y1="4.91805" x2="277.845" y2="30.5232" gradientUnits="userSpaceOnUse">
<stop offset="0.11563" stop-color="#01448C"/>
<stop offset="1" stop-color="#04559E"/>
</linearGradient>
<linearGradient id="paint7_linear_476_8507" x1="287.223" y1="85.6312" x2="348.088" y2="21.0117" gradientUnits="userSpaceOnUse">
<stop offset="0.16896" stop-color="#86366B"/>
<stop offset="1" stop-color="#074A73"/>
</linearGradient>
<linearGradient id="paint8_linear_476_8507" x1="254.32" y1="23.8583" x2="254.964" y2="23.8583" gradientUnits="userSpaceOnUse">
<stop stop-color="#3288A0"/>
<stop offset="1" stop-color="#024D75"/>
</linearGradient>
<linearGradient id="paint9_linear_476_8507" x1="317.772" y1="40.455" x2="354.404" y2="17.5977" gradientUnits="userSpaceOnUse">
<stop offset="0.16896" stop-color="#06377E"/>
<stop offset="1" stop-color="#003175"/>
</linearGradient>
<linearGradient id="paint10_linear_476_8507" x1="260.323" y1="6.5375" x2="293.895" y2="85.6255" gradientUnits="userSpaceOnUse">
<stop offset="0.11563" stop-color="#024262"/>
<stop offset="1" stop-color="#3288A0"/>
</linearGradient>
<linearGradient id="paint11_linear_476_8507" x1="287.214" y1="102.743" x2="298.432" y2="55.536" gradientUnits="userSpaceOnUse">
<stop offset="0.16896" stop-color="#303A8B"/>
<stop offset="1" stop-color="#2B3989"/>
</linearGradient>
<clipPath id="clip0_476_8507">
<rect width="354.43" height="160" fill="white"/>
</clipPath>
<clipPath id="clip1_476_8507">
<rect width="100.11" height="96.6933" fill="white" transform="translate(254.32)"/>
</clipPath>
</defs>
</svg>
